<svg width="64" height="64" viewBox="0 0 64 64" fill="none" xmlns="http://www.w3.org/2000/svg">
<g clip-path="url(#clip0)">
<path d="M52.625 45.1243L45.0076 45.1246C43.0646 48.15 40.4746 50.7107 37.4303 52.6262H52.625V58.2493L64 48.8762L52.625 39.5012V45.1243Z" fill="#34495E"/>
<path d="M24.6424 52.619C35.9665 52.5416 45.125 43.3437 45.125 32.001C45.125 21.2434 36.8857 12.419 26.375 11.4705V5.75098L15.125 15.126L26.375 24.4991V19.0655C32.7188 19.9851 37.625 25.4066 37.625 32.001C37.625 39.2374 31.7364 45.126 24.5 45.126H0V52.626H24.6509C24.6471 52.6237 24.646 52.6212 24.6424 52.619Z" fill="#FF6428"/>
<path d="M15.3436 41.3759C12.9021 38.9909 11.375 35.6749 11.375 32.0009C11.375 27.643 13.5334 23.8014 16.813 21.413L10.9209 16.5035C6.61037 20.2838 3.875 25.8173 3.875 32.0009C3.875 35.389 4.745 38.5559 6.19263 41.3759H15.3436Z" fill="#34495E"/>
</g>
<defs>
<clipPath id="clip0">
<rect width="64" height="64" fill="white"/>
</clipPath>
</defs>
</svg>
