<svg width="64" height="64" viewBox="0 0 64 64" fill="none" xmlns="http://www.w3.org/2000/svg">
<path d="M49.5079 44.5L62 32L49.5079 19.5L45.6705 23.3671L54.2979 32L45.6705 40.6329L49.5079 44.5ZM18.4545 40.6329L9.8271 32L18.4545 23.3671L14.6171 19.5L2.125 32L14.6171 44.5L18.4545 40.6329Z" fill="#34495E"/>
<path d="M38.6898 28.7604L34.8416 24.9125L32.2824 27.4713L20.2565 39.496V43.3439H24.1048L38.6898 28.7604Z" fill="#FF6428"/>
<path d="M43.0567 24.4367C43.446 24.0474 43.446 23.4439 43.0567 23.0546L40.5458 20.5437C40.1565 20.1544 39.5531 20.1544 39.1638 20.5437L36.5555 23.152L40.4485 27.0449L43.0567 24.4367Z" fill="#FF6428"/>
</svg>
