<svg width="64" height="64" viewBox="0 0 64 64" fill="none" xmlns="http://www.w3.org/2000/svg">
<path d="M57.3014 28.0114C55.4091 28.0109 53.7829 29.3539 53.4257 31.2121H23.5749V32.7091H53.4257C53.821 34.7539 55.7371 36.1403 57.8033 35.8757C59.8696 35.6111 61.3744 33.7871 61.2419 31.7082C61.1093 29.6293 59.3847 28.0114 57.3014 28.0114Z" fill="#34495E"/>
<path d="M43.1891 20.608H36.8822C34.6727 20.6026 32.8774 22.3906 32.874 24.6001C32.8725 25.2643 32.6069 25.9003 32.1357 26.3686C31.6644 26.8364 31.0265 27.0981 30.3623 27.0952H23.5749V28.5923L30.3623 28.5923C32.5718 28.5971 34.3671 26.8096 34.371 24.6001C34.372 23.9359 34.6376 23.2995 35.1088 22.8316C35.5801 22.3633 36.218 22.1021 36.8822 22.105H43.1891C43.3416 22.8745 43.7198 23.5811 44.2743 24.1357C45.4054 25.2741 47.1115 25.6181 48.5949 25.0061C50.0783 24.3945 51.0466 22.9486 51.0466 21.3438C51.0466 19.7391 50.0783 18.2927 48.5949 17.6811C47.1115 17.0696 45.4054 17.4131 44.2743 18.5515C43.7188 19.1158 43.3411 19.8307 43.1891 20.608Z" fill="#34495E"/>
<path d="M49.859 45.383C51.3892 43.8377 51.3843 41.3475 49.8488 39.8086C48.3132 38.2691 45.823 38.2589 44.2748 39.7852C43.7198 40.3397 43.3421 41.0468 43.1891 41.8163H36.8822C36.218 41.8192 35.5801 41.5576 35.1088 41.0897C34.6376 40.6214 34.372 39.9855 34.371 39.3212C34.3671 37.1117 32.5718 35.3238 30.3623 35.3291L23.5749 35.3291V36.8262H30.3623C31.0265 36.8232 31.6644 37.0844 32.1357 37.5528C32.6069 38.0206 32.8725 38.657 32.874 39.3212C32.8774 41.5308 34.6727 43.3182 36.8822 43.3134H43.1891C43.3411 44.0906 43.7188 44.8056 44.2743 45.3699C45.8133 46.9156 48.3132 46.921 49.859 45.3825V45.383Z" fill="#34495E"/>
<path d="M28.7751 43.383L30.8959 49.1178C31.6045 51.0203 33.4164 52.2854 35.4465 52.2956H36.4368C36.9406 54.0105 38.5288 55.1766 40.3158 55.144C42.1028 55.1113 43.6476 53.8877 44.0882 52.1552C44.5287 50.4233 43.7563 48.6105 42.2022 47.7275C40.6482 46.8449 38.6955 47.111 37.4338 48.377C36.7901 49.0315 36.3885 49.8853 36.2949 50.7985H35.4465C34.0421 50.7903 32.7887 49.9141 32.2989 48.5978L30.1791 42.8679C29.4695 40.9669 27.6572 39.7032 25.6275 39.6954H23.5749V41.1925H25.6275C27.0305 41.1964 28.2839 42.0687 28.7751 43.383Z" fill="#34495E"/>
<path d="M37.4333 9.95958C36.9665 10.4225 36.6239 10.9956 36.4368 11.6257H35.4465C33.4164 11.6355 31.604 12.9006 30.895 14.8035L28.7741 20.533C28.2839 21.8483 27.031 22.7225 25.6275 22.7288H23.5749V24.2259H25.6275C27.6562 24.22 29.4691 22.9584 30.1786 21.0583L32.2989 15.3235C32.7887 14.0068 34.0421 13.1306 35.4465 13.1228H36.295C36.3885 14.0355 36.7896 14.8898 37.4333 15.5443C38.9742 17.0823 41.4703 17.0803 43.0093 15.5399C44.5482 14 44.5482 11.5044 43.0093 9.96397C41.4703 8.42404 38.9742 8.42209 37.4333 9.95958Z" fill="#34495E"/>
<path d="M13.5196 28.3516C12.3675 31.0952 12.601 34.2248 14.1467 36.7676C15.6925 39.3105 18.3635 40.9581 21.3294 41.1983V22.7245C20.3849 22.7932 19.4581 23.013 18.5828 23.3746C16.2988 24.2917 14.4757 26.0836 13.5196 28.3516Z" fill="#34495E"/>
<path d="M5.27943 35.5546C5.51773 35.6355 5.6995 35.8304 5.76334 36.074C6.2185 37.8123 6.9412 39.4687 7.9056 40.9848C8.04059 41.1972 8.06009 41.4628 7.95726 41.6924L6.83447 44.1986L10.2954 47.5753L12.7647 46.3555C12.9952 46.2415 13.2676 46.2537 13.4869 46.3877C15.0127 47.3219 16.6896 47.9837 18.4424 48.3428C18.6954 48.395 18.9035 48.5733 18.9931 48.815L19.9629 51.3891L21.3293 51.3657V42.6992C16.326 42.361 12.2199 38.6115 11.4294 33.6594C10.639 28.7077 13.3738 23.8662 18.0234 21.9871C19.0784 21.5607 20.1939 21.3029 21.3293 21.2239V12.5808L19.3425 12.6139L18.4654 15.186C18.3835 15.4248 18.1876 15.6066 17.9429 15.6699C16.2047 16.1251 14.5473 16.8478 13.0308 17.8122C12.8183 17.9472 12.5517 17.9662 12.3222 17.8634L9.8159 16.7406L6.43926 20.2015L7.65902 22.6718C7.77257 22.9018 7.76038 23.1742 7.62637 23.3935C6.69218 24.9198 6.03088 26.5971 5.67124 28.3505C5.6191 28.6034 5.44074 28.8115 5.19903 28.9012L2.625 29.8578L2.70687 34.6847L5.27943 35.5546Z" fill="#FF6428"/>
</svg>
