<svg width="57" height="64" viewBox="0 0 57 64" fill="none" xmlns="http://www.w3.org/2000/svg">
<path d="M9.8945 22.4001C7.53825 22.4001 5.62787 20.4897 5.62787 18.1335C5.62787 15.7772 7.53825 13.8668 9.8945 13.8668C12.2507 13.8668 14.1611 15.7772 14.1611 18.1335C14.1611 20.4897 12.2507 22.4001 9.8945 22.4001ZM9.8945 16.0001C8.71587 16.0001 7.76112 16.9547 7.76112 18.1335C7.76112 19.3121 8.71575 20.2668 9.8945 20.2668C11.0732 20.2668 12.0279 19.3122 12.0279 18.1335C12.0277 16.9547 11.0731 16.0001 9.8945 16.0001Z" fill="#61ACC9"/>
<path d="M39.7611 21.3334C37.4049 21.3334 35.4945 19.423 35.4945 17.0668C35.4945 14.7105 37.4049 12.8002 39.7611 12.8002C42.1174 12.8002 44.0277 14.7105 44.0277 17.0668C44.0277 19.423 42.1174 21.3334 39.7611 21.3334ZM39.7611 14.9334C38.5825 14.9334 37.6277 15.888 37.6277 17.0668C37.6277 18.2455 38.5824 19.2002 39.7611 19.2002C40.9399 19.2002 41.8945 18.2455 41.8945 17.0668C41.8945 15.888 40.9397 14.9334 39.7611 14.9334Z" fill="#61ACC9"/>
<path d="M13.0945 52.2668C10.7382 52.2668 8.82785 50.3564 8.82785 48.0001C8.82785 45.6439 10.7382 43.7335 13.0945 43.7335C15.4507 43.7335 17.3611 45.6439 17.3611 48.0001C17.3611 50.3564 15.4507 52.2668 13.0945 52.2668ZM13.0945 45.8668C11.9159 45.8668 10.9611 46.8214 10.9611 48.0001C10.9611 49.1788 11.9157 50.1335 13.0945 50.1335C14.2732 50.1335 15.2279 49.1789 15.2279 48.0001C15.2277 46.8215 14.2731 45.8668 13.0945 45.8668Z" fill="#61ACC9"/>
<path d="M25.8945 57.6001C23.5382 57.6001 21.6279 55.6898 21.6279 53.3335C21.6279 50.9773 23.5382 49.0669 25.8945 49.0669C28.2507 49.0669 30.1611 50.9773 30.1611 53.3335C30.1611 55.6898 28.2507 57.6001 25.8945 57.6001ZM25.8945 51.2001C24.7159 51.2001 23.7611 52.1548 23.7611 53.3335C23.7611 54.5123 24.7157 55.4669 25.8945 55.4669C27.0732 55.4669 28.0279 54.5123 28.0279 53.3335C28.0279 52.1548 27.0731 51.2001 25.8945 51.2001Z" fill="#61ACC9"/>
<path d="M29.8486 5.02082L28.3404 3.51257L25.8945 5.95845L23.4486 3.51257L21.9404 5.02082L24.3862 7.4667L21.9404 9.91257L23.4486 11.4208L25.8945 8.97495L28.3404 11.4208L29.8486 9.91257L27.4027 7.4667L29.8486 5.02082Z" fill="#61ACC9"/>
<path d="M18.1153 29.5543L16.607 28.046L14.1611 30.4919L11.7153 28.046L10.207 29.5543L12.6529 32.0001L10.207 34.446L11.7153 35.9543L14.1611 33.5084L16.607 35.9543L18.1153 34.446L15.6694 32.0001L18.1153 29.5543Z" fill="#61ACC9"/>
<path d="M44.7819 44.4876L43.2736 42.9794L40.8277 45.4252L38.3819 42.9794L36.8736 44.4876L39.3195 46.9335L36.8736 49.3794L38.3819 50.8876L40.8277 48.4417L43.2736 50.8876L44.7819 49.3794L42.3361 46.9335L44.7819 44.4876Z" fill="#61ACC9"/>
<path d="M19.7569 21.3333H21.5703V19.2H17.3036C16.7149 19.2 16.237 19.6778 16.237 20.2666V24.5332H18.3704V23.04C22.9976 29.0058 22.6648 37.4346 17.581 43.0165L19.1608 44.4522C25.0731 37.9626 25.327 28.1183 19.7569 21.3333Z" fill="#4398D1"/>
<path d="M33.0486 15.2459L29.8486 12.0459L28.3404 13.5541L29.7196 14.9334H16.2945V17.0668H29.7196L28.3404 18.446L29.8486 19.9543L33.0486 16.7543C33.4656 16.3372 33.4656 15.6619 33.0486 15.2459Z" fill="#4398D1"/>
<path d="M35.4945 21.3334H31.2279V23.4667H32.9559C27.7164 29.0444 24.8086 36.415 24.8279 44.0672L24.8278 46.9334H26.9613V44.0672C26.9431 36.9985 29.613 30.1867 34.4279 25.0124V26.6667H36.5613V22.4C36.5611 21.8112 36.0833 21.3334 35.4945 21.3334Z" fill="#4398D1"/>
<path d="M52.8746 24.2213L54.3831 22.7128L51.1828 19.5125L49.6743 21.021L52.8746 24.2213Z" fill="#3077A6"/>
<path d="M50.2072 26.8892L51.7157 25.3807L48.5155 22.1805L47.0069 23.689L50.2072 26.8892Z" fill="#3077A6"/>
<path d="M50.4277 0H1.36112C0.77237 0 0.294495 0.477875 0.294495 1.06662V62.9333C0.294495 63.522 0.77237 63.9999 1.36112 63.9999H42.9611C43.1009 63.9999 43.2385 63.9721 43.3675 63.9189C43.4976 63.8655 43.616 63.7866 43.7152 63.6874L51.1819 56.2207C51.2715 56.1301 51.343 56.0245 51.3952 55.9082C51.4101 55.8751 51.4187 55.8431 51.4305 55.809C51.4614 55.7194 51.4796 55.6266 51.486 55.5327C51.486 55.5093 51.4987 55.489 51.4987 55.4666V30.9334H49.3611V54.4H42.9611C42.3724 54.4 41.8945 54.8779 41.8945 55.4666V61.8666H2.42774V2.13337H49.3611V16H51.4945V1.06662C51.4945 0.477875 51.0166 0 50.4277 0ZM44.0277 56.5334H47.8529L44.0277 60.3585V56.5334Z" fill="#FF6428"/>
<path d="M55.9819 17.9125C54.6645 16.6538 52.591 16.6538 51.2736 17.9125L32.607 36.5792C32.4075 36.7787 32.2945 37.0507 32.2945 37.3333V40.5333C32.2945 41.1221 32.7724 41.6 33.3611 41.6H36.5611C36.8437 41.6 37.1157 41.488 37.3152 41.2875L55.9819 22.6208C57.2801 21.3195 57.2801 19.2138 55.9819 17.9125ZM50.4277 21.7748L52.1195 23.4666L50.9611 24.625L49.2694 22.9332L50.4277 21.7748ZM36.1195 39.4666H34.4277V37.7748L47.7611 24.4415L49.4529 26.1332L36.1195 39.4666ZM54.4736 21.1125L53.6277 21.9584L51.936 20.2666L52.7819 19.4207C53.2555 18.9685 54 18.9685 54.4736 19.4207C54.9387 19.8891 54.9387 20.6442 54.4736 21.1125Z" fill="#FF6428"/>
<path d="M14.1611 18.1335C14.1611 15.7772 12.2507 13.8668 9.89449 13.8668C7.53824 13.8668 5.62787 15.7772 5.62787 18.1335C5.62787 20.4897 7.53824 22.4001 9.89449 22.4001C12.2507 22.4001 14.1611 20.4897 14.1611 18.1335ZM9.89449 20.2667C8.71587 20.2667 7.76112 19.3121 7.76112 18.1333C7.76112 16.9547 8.71574 15.9999 9.89449 15.9999C11.0732 15.9999 12.0279 16.9546 12.0279 18.1333C12.0277 19.3121 11.0731 20.2667 9.89449 20.2667Z" fill="#34495E"/>
<path d="M23.4486 11.4208L25.8945 8.97495L28.3404 11.4208L29.8486 9.91257L27.4027 7.4667L29.8486 5.02082L28.3404 3.51257L25.8945 5.95845L23.4486 3.51257L21.9404 5.02082L24.3862 7.4667L21.9404 9.91257L23.4486 11.4208Z" fill="#34495E"/>
<path d="M39.7611 21.3333C42.1174 21.3333 44.0278 19.4229 44.0278 17.0667C44.0278 14.7104 42.1174 12.7999 39.7611 12.7999C37.4049 12.7999 35.4945 14.7103 35.4945 17.0666C35.4945 19.4228 37.4049 21.3333 39.7611 21.3333ZM39.7611 14.9333C40.9398 14.9333 41.8945 15.8879 41.8945 17.0667C41.8945 18.2454 40.9399 19.2001 39.7611 19.2001C38.5824 19.2001 37.6278 18.2454 37.6278 17.0667C37.6278 15.8879 38.5835 14.9333 39.7611 14.9333Z" fill="#34495E"/>
<path d="M13.0945 52.2666C15.4508 52.2666 17.3611 50.3563 17.3611 48C17.3611 45.6438 15.4508 43.7334 13.0945 43.7334C10.7383 43.7334 8.82776 45.6438 8.82776 48C8.82776 50.3563 10.7383 52.2666 13.0945 52.2666ZM13.0945 45.8666C14.2731 45.8666 15.2279 46.8213 15.2279 48C15.2279 49.1786 14.2733 50.1334 13.0945 50.1334C11.9158 50.1334 10.9611 49.1788 10.9611 48C10.9611 46.8214 11.9169 45.8666 13.0945 45.8666Z" fill="#34495E"/>
<path d="M15.6694 32L18.1153 29.5541L16.607 28.0459L14.1611 30.4918L11.7153 28.0459L10.207 29.5541L12.6529 32L10.207 34.4459L11.7153 35.9541L14.1611 33.5083L16.607 35.9541L18.1153 34.4459L15.6694 32Z" fill="#34495E"/>
<path d="M43.2736 42.9792L40.8278 45.4251L38.3819 42.9792L36.8736 44.4875L39.3195 46.9334L36.8736 49.3792L38.3819 50.8875L40.8278 48.4416L43.2736 50.8875L44.7819 49.3792L42.3361 46.9334L44.7819 44.4875L43.2736 42.9792Z" fill="#34495E"/>
<path d="M19.7569 21.3334H21.5703V19.2001H17.3036C16.7149 19.2001 16.237 19.6779 16.237 20.2667V24.5333H18.3704V23.0401C22.9976 29.0059 22.6648 37.4347 17.581 43.0166L19.1608 44.4523C25.0731 37.9627 25.327 28.1184 19.7569 21.3334Z" fill="#34495E"/>
<path d="M25.8945 57.6C28.2507 57.6 30.1611 55.6896 30.1611 53.3334C30.1611 50.9771 28.2507 49.0668 25.8945 49.0668C23.5382 49.0668 21.6279 50.9771 21.6279 53.3334C21.6279 55.6896 23.5382 57.6 25.8945 57.6ZM25.8945 51.2C27.0731 51.2 28.0279 52.1546 28.0279 53.3334C28.0279 54.5121 27.0732 55.4668 25.8945 55.4668C24.7157 55.4668 23.7611 54.5121 23.7611 53.3334C23.7611 52.1546 24.7169 51.2 25.8945 51.2Z" fill="#34495E"/>
<path d="M16.2945 17.0667H29.7196L28.3404 18.4459L29.8486 19.9542L33.0486 16.7542C33.4646 16.3382 33.4646 15.6619 33.0486 15.2459L29.8486 12.0459L28.3404 13.5541L29.7196 14.9334H16.2945V17.0667Z" fill="#34495E"/>
<path d="M34.4277 26.6666H36.5611V22.4C36.5611 21.8112 36.0832 21.3334 35.4945 21.3334H31.2278V23.4667H32.9558C27.7164 29.0454 24.8086 36.415 24.8279 44.0684L24.8278 46.9335H26.9612V44.0684C26.9431 36.9996 29.6118 30.1879 34.4278 25.0135V26.6666H34.4277Z" fill="#34495E"/>
</svg>
